<svg id="Layer_3" data-name="Layer 3" xmlns="http://www.w3.org/2000/svg" xmlns:xlink="http://www.w3.org/1999/xlink" viewBox="0 0 376 244.7"><defs><style>.cls-1{fill:url(#radial-gradient);}.cls-2{fill:url(#radial-gradient-2);}.cls-3{fill:url(#radial-gradient-3);}.cls-4{fill:url(#radial-gradient-4);}.cls-5{fill:url(#radial-gradient-5);}.cls-6{fill:url(#radial-gradient-6);}.cls-7{fill:url(#radial-gradient-7);}.cls-8{fill:url(#radial-gradient-8);}.cls-9{fill:#231f20;}</style><radialGradient id="radial-gradient" cx="243.14" cy="114" r="181.14" gradientUnits="userSpaceOnUse"><stop offset="0" stop-color="#757575"/><stop offset="1" stop-color="#fff"/></radialGradient><radialGradient id="radial-gradient-2" cx="146.57" cy="8.12" r="136.58" xlink:href="#radial-gradient"/><radialGradient id="radial-gradient-3" cx="243.14" cy="240.42" r="181.14" xlink:href="#radial-gradient"/><radialGradient id="radial-gradient-4" cx="146.57" cy="134.53" r="136.58" xlink:href="#radial-gradient"/><radialGradient id="radial-gradient-5" cx="371.71" cy="240.42" r="181.14" xlink:href="#radial-gradient"/><radialGradient id="radial-gradient-6" cx="275.14" cy="134.53" r="136.58" xlink:href="#radial-gradient"/><radialGradient id="radial-gradient-7" cx="115.14" cy="240.42" r="181.14" xlink:href="#radial-gradient"/><radialGradient id="radial-gradient-8" cx="18.57" cy="134.53" r="136.58" xlink:href="#radial-gradient"/></defs><title>arrow_keys [Converted]</title><rect class="cls-1" x="128" width="119.43" height="118.29" rx="12" ry="12"/><rect class="cls-2" x="143.43" y="5.83" width="88.57" height="99.43" rx="6" ry="6"/><rect class="cls-3" x="128" y="126.42" width="119.43" height="118.29" rx="12" ry="12"/><rect class="cls-4" x="143.43" y="132.25" width="88.57" height="99.43" rx="6" ry="6"/><rect class="cls-5" x="256.57" y="126.42" width="119.43" height="118.29" rx="12" ry="12"/><rect class="cls-6" x="272" y="132.25" width="88.57" height="99.43" rx="6" ry="6"/><rect class="cls-7" y="126.42" width="119.43" height="118.29" rx="12" ry="12"/><rect class="cls-8" x="15.43" y="132.25" width="88.57" height="99.43" rx="6" ry="6"/><polygon class="cls-9" points="170.75 71.29 170.75 43.46 178.13 43.46 168.41 23.02 158.69 43.46 166.06 43.46 166.06 71.29 170.75 71.29"/><polygon class="cls-9" points="166.07 157.28 166.07 185.12 158.69 185.12 168.41 205.55 178.13 185.12 170.76 185.12 170.76 157.28 166.07 157.28"/><polygon class="cls-9" points="292.53 183.76 320.37 183.76 320.37 191.13 340.8 181.41 320.37 171.69 320.37 179.07 292.53 179.07 292.53 183.76"/><polygon class="cls-9" points="84 179.07 56.17 179.07 56.17 171.69 35.73 181.41 56.17 191.13 56.17 183.76 84 183.76 84 179.07"/></svg>